<svg clip-rule="evenodd" fill-rule="evenodd" viewBox="0 0 1103 197" xmlns="http://www.w3.org/2000/svg" xmlns:xlink="http://www.w3.org/1999/xlink"><linearGradient id="a"><stop offset="0" stop-color="#ffffb5"/><stop offset="1" stop-color="#ff7f00"/></linearGradient><linearGradient id="b" gradientTransform="matrix(0 40.9229 -40.9229 0 25.185 6.79861)" gradientUnits="userSpaceOnUse" x1="0" x2="1" xlink:href="#a" y1="0" y2="0"/><linearGradient id="c" gradientTransform="matrix(0 40.9229 -40.9229 0 56.3508 6.79861)" gradientUnits="userSpaceOnUse" x1="0" x2="1" xlink:href="#a" y1="0" y2="0"/><linearGradient id="d" gradientTransform="matrix(0 40.9229 -40.9229 0 87.5163 6.79861)" gradientUnits="userSpaceOnUse" x1="0" x2="1" xlink:href="#a" y1="0" y2="0"/><linearGradient id="e" gradientTransform="matrix(0 40.9229 -40.9229 0 150.902 6.79861)" gradientUnits="userSpaceOnUse" x1="0" x2="1" xlink:href="#a" y1="0" y2="0"/><linearGradient id="f" gradientTransform="matrix(0 40.9229 -40.9229 0 194.447 6.79861)" gradientUnits="userSpaceOnUse" x1="0" x2="1" xlink:href="#a" y1="0" y2="0"/><linearGradient id="g" gradientTransform="matrix(0 40.9229 -40.9229 0 232.749 6.79861)" gradientUnits="userSpaceOnUse" x1="0" x2="1" xlink:href="#a" y1="0" y2="0"/><linearGradient id="h" gradientTransform="matrix(0 40.9229 -40.9229 0 117.709 6.79861)" gradientUnits="userSpaceOnUse" x1="0" x2="1" xlink:href="#a" y1="0" y2="0"/><clipPath id="i"><path clip-rule="evenodd" d="m0 0h1024v226.551h-1024z"/></clipPath><g transform="scale(1.0762 .869444)"><path d="m0 0h1024v226.551h-1024z" fill="none"/><g clip-path="url(#i)"><g fill="none" stroke="#000" stroke-width="2.5" transform="matrix(4.07305 0 0 4.72689 -10.8077 -15.4211)"><path d="m43.025 4.365h-30.274l-9.028 45.573h30.274l1.027-5.136h5.189l6.974-35.355h-5.189zm-11.785 9.731-5.082 26.003h-5.514l5.135-26.003z"/><path d="m53.62 4.419-8.973 45.519h14.974l8.974-45.519z"/><path d="m109.519 4.365h-30.382l-.973 5.082h-5.082l-6.974 35.355h5.082l-1.027 5.136h20.164l.974-5.136h.324l-1.027 5.136h9.947l4.919-25.138h-20.11l-1.947 9.785h5.19l-1.135 5.514h-5.46l5.136-26.003h10.541l-1.027 5.19h9.947z"/><path d="m150.388 4.365h-14.975l-8.974 45.573h9.839l4.001-20.434h.432l-2.054 10.217h15.028l2.001-10.217h.324l-4.054 20.434h14.974l8.974-45.573h-14.975l-1.999 10.218h-10.542z"/><path d="m211.746 4.365h-25.192l-.973 5.082h-5.082l-6.974 35.355h5.082l-1.027 5.136h25.192l1.027-5.136h5.136l6.974-35.355h-5.136zm-11.731 9.731-5.135 26.003h-5.461l5.136-26.003z"/><path d="m235.37 14.583 2.001-10.218h-14.975l-8.974 45.573h9.785l4.054-20.434h.379l-2 10.217h5.081l-2.054 10.217h15.029l8.973-45.573h-9.839l-4 20.435h-.432l2-10.217z"/><path d="m115.195 4.365-8.974 45.519h14.975l8.973-45.519z"/></g><g fill="#3bb3c2" transform="matrix(4.07305 0 0 4.72689 -10.8077 -15.4211)"><path d="m32.375 13.069h-7.839l-5.568 28.328h7.839zm8.92-7.406-.973 5.028h5.135l-6.487 33.03h-5.19l-1.027 5.136h-27.895l8.542-43.194z"/><path d="m54.269 5.663h12.596l-8.487 43.194h-12.596z"/><path d="m107.789 5.663-2.433 12.542h-7.568l1.027-5.136h-12.92l-5.569 28.328h7.839l1.567-7.893h-5.189l1.459-7.407h17.786l-4.487 22.76h-7.568l1.027-5.136h-2.703l-.973 5.136h-17.786l1.027-5.136h-5.081l6.541-33.03h5.027l1.028-5.028z"/><path d="m146.712 15.88h12.92l2-10.217h12.596l-8.541 43.194h-12.596l4.054-20.435h-2.703l-2 10.218h-12.596l2-10.218h-2.811l-4 20.435h-7.461l8.542-43.194h12.596z"/><path d="m201.15 13.069h-7.839l-5.568 28.328h7.839zm8.92-7.406-1.027 5.028h5.19l-6.541 33.03h-5.136l-1.027 5.136h-22.814l1.028-5.136h-5.082l6.487-33.03h5.082l1.027-5.028z"/><path d="m233.641 15.88h5.081l-2 10.217h2.757l4.054-20.434h7.407l-8.488 43.194h-12.596l2-10.217h-5.081l2-10.218h-2.757l-4.054 20.435h-7.407l8.488-43.194h12.65z"/><path d="m115.627 5.663h12.596l-8.487 43.194h-12.596z"/></g><g transform="matrix(4.07305 0 0 4.72689 -10.8077 -15.4211)"><path d="m33.835 11.88h-10.218l-6.054 30.652h10.217zm5.027 0h5.19l-6.055 30.652h-5.136l-1.027 5.19h-25.516l8.055-40.924h25.516z" fill="url(#b)"/><path d="m55.296 6.798h10.218l-8.109 40.924h-10.218z" fill="url(#c)"/><path d="m100.22 11.88h-15.299l-6 30.652h10.217l2-10.217h-5.136l.973-5.028h15.408l-4.055 20.435h-5.136l.974-5.19h-5.028l-1.027 5.19h-15.407l1.027-5.19h-5.082l6.055-30.652h5.082l.973-5.082h25.624l-2 10.218h-5.19z" fill="url(#d)"/><path d="m172.823 6.798-8.055 40.924h-10.271l4.054-20.435h-5.082l-2 10.217h-10.217l2-10.217h-5.136l-4.054 20.435h-5.082l8.109-40.924h10.218l-2.055 10.218h15.299l2.054-10.218z" fill="url(#e)"/><path d="m207.637 11.88h5.19l-6.054 30.652h-5.19l-1.027 5.19h-20.435l1.027-5.19h-5.082l6.055-30.652h5.082l.973-5.082h20.489zm-5.081 0h-10.217l-6.055 30.652h10.217z" fill="url(#f)"/><path d="m249.534 6.798-8.055 40.924h-10.217l2-10.218h-5.082l2.054-10.217h-5.189l-4 20.435h-5.082l8.055-40.924h10.217l-2 10.218h5.082l-2.055 10.271h5.19l4-20.489z" fill="url(#g)"/><path d="m116.655 6.798h10.217l-8.109 40.924h-10.217z" fill="url(#h)"/></g><g fill="none" stroke="#fff" stroke-width=".75" transform="matrix(4.07305 0 0 4.72689 -10.8077 -15.4211)"><path d="m38.862 11.88 1.027-5.082h-25.516l-8.055 40.924h25.516l1.027-5.19h5.136l6.055-30.652zm-5.027 0-6.055 30.652h-10.217l6.054-30.652z"/><path d="m55.296 6.798-8.109 40.924h10.218l8.109-40.924z"/><path d="m100.22 11.88h-15.299l-6 30.652h10.217l2-10.217h-5.136l.973-5.028h15.408l-4.055 20.435h-5.136l.974-5.19h-5.028l-1.027 5.19h-15.407l1.027-5.19h-5.082l6.055-30.652h5.082l.973-5.082h25.624l-2 10.218h-5.19z"/><path d="m172.823 6.798-8.055 40.924h-10.271l4.054-20.435h-5.082l-2 10.217h-10.217l2-10.217h-5.136l-4.054 20.435h-5.082l8.109-40.924h10.218l-2.055 10.218h15.299l2.054-10.218z"/><path d="m202.556 11.88-6.055 30.652h-10.217l6.055-30.652zm5.081 0 1.028-5.082h-20.489l-.973 5.082h-5.082l-6.055 30.652h5.082l-1.027 5.19h20.435l1.027-5.19h5.19l6.054-30.652z"/><path d="m249.534 6.798-8.055 40.924h-10.217l2-10.218h-5.082l2.054-10.217h-5.189l-4 20.435h-5.082l8.055-40.924h10.217l-2 10.218h5.082l-2.055 10.271h5.19l4-20.489z"/><path d="m116.655 6.798-8.109 40.924h10.217l8.109-40.924z"/></g><g transform="matrix(4.07305 0 0 4.72689 -10.8077 -15.4211)"><path d="m13.4 5.663-8.542 43.194-1.351 1.297 9.028-45.789z" fill="#78c8dc"/><path d="m33.997 50.154h-30.49l1.351-1.297h27.895z" fill="#0078a0"/><path d="m41.295 5.663h-27.895l-.865-1.298h30.49z" fill="#b4dce6"/><path d="m32.753 48.857 1.027-5.136 1.244 1.244-1.027 5.189z" fill="#008caa"/><path d="m33.78 43.721h5.19l1.19 1.297-5.136-.053z" fill="#0078a0"/><path d="m40.322 10.691.973-5.028 1.73-1.298-1.027 5.082z" fill="#008caa"/><path d="m45.457 10.691h-5.135l1.676-1.244h5.189z" fill="#b4dce6"/><path d="m47.187 9.447-7.027 35.571-1.19-1.297 6.487-33.03z" fill="#008caa"/><path d="m26.807 41.397h-7.839l1.73-1.352h5.19z" fill="#b4dce6"/><path d="m25.779 14.367-5.081 25.678-1.73 1.352 5.568-28.328z" fill="#008caa"/><path d="m24.536 13.069h7.839l-1.406 1.298h-5.19z" fill="#0078a0"/><path d="m32.375 13.069-5.568 28.328-.919-1.352 5.081-25.678z" fill="#78c8dc"/><path d="m54.215 5.609-8.487 43.194-1.46 1.244 8.974-45.736z" fill="#78c8dc"/><path d="m45.728 48.803h12.596l1.189 1.244h-15.245z" fill="#0078a0"/><path d="m68.487 4.311-8.974 45.736-1.189-1.244 8.487-43.194z" fill="#008caa"/><path d="m67.244 43.721h5.081l-1.514 1.297-5.027-.053z" fill="#0078a0"/><path d="m72.325 43.721-1.027 5.136-1.514 1.297 1.027-5.136z" fill="#78c8dc"/><path d="m73.785 10.691-6.541 33.03-1.46 1.244 6.974-35.518z" fill="#78c8dc"/><path d="m78.812 10.691h-5.027l-1.027-1.244h5.081z" fill="#b4dce6"/><path d="m79.84 5.663-1.028 5.028-.973-1.244.973-5.082z" fill="#78c8dc"/><path d="m90.165 50.154h-20.381l1.514-1.297h17.786z" fill="#0078a0"/><path d="m88.165 41.397h-7.839l1.622-1.352h5.19z" fill="#b4dce6"/><path d="m87.03 14.367-5.082 25.678-1.622 1.352 5.569-28.328z" fill="#008caa"/><path d="m86.002 26.097-1.459 7.407-1.514 1.297 2-10.001z" fill="#78c8dc"/><path d="m89.084 48.857.973-5.136 1.135 1.297-1.027 5.136z" fill="#008caa"/><path d="m84.543 33.504h5.189l-1.513 1.297h-5.19z" fill="#0078a0"/><path d="m92.76 43.721-1.027 5.136-1.514 1.297 1.027-5.136z" fill="#78c8dc"/><path d="m89.732 33.504-1.567 7.893-1.027-1.352 1.081-5.244z" fill="#78c8dc"/><path d="m107.789 5.663h-27.949l-1.028-1.298h30.598z" fill="#b4dce6"/><g fill="#0078a0"><path d="m90.057 43.721h2.703l-1.514 1.297h-.054z"/><path d="m100.382 50.154h-10.163l1.514-1.297h7.568z"/><path d="m85.895 13.069h12.92l-1.514 1.298h-10.271z"/></g><path d="m103.788 26.097h-17.786l-.973-1.297h20.381z" fill="#b4dce6"/><path d="m98.815 13.069-1.027 5.136-1.514 1.297 1.027-5.135z" fill="#78c8dc"/><path d="m106.437 19.502h-10.163l1.514-1.297h7.568z" fill="#0078a0"/><path d="m105.41 24.8-5.028 25.354-1.081-1.297 4.487-22.76z" fill="#008caa"/><path d="m109.41 4.365-2.973 15.137-1.081-1.297 2.433-12.542z" fill="#008caa"/><path d="m174.228 5.663h-12.596l-1.135-1.298h15.245z" fill="#b4dce6"/><path d="m175.742 4.365-9.028 45.789-1.027-1.297 8.541-43.194z" fill="#008caa"/><path d="m166.714 50.154h-15.245l1.622-1.297h12.596z" fill="#0078a0"/><path d="m161.632 5.663-2 10.217-1.135-1.297 2-10.218z" fill="#78c8dc"/><path d="m157.145 28.422-4.054 20.435-1.622 1.297 4.055-20.434z" fill="#78c8dc"/><path d="m154.442 28.422h2.703l-1.621 1.298h-.054z" fill="#0078a0"/><path d="m155.47 29.72-2.001 10.217-1.027-1.297 2-10.218z" fill="#008caa"/><path d="m150.28 4.365-2.054 10.218-1.514 1.297 2-10.217z" fill="#008caa"/><path d="m148.712 5.663h-12.596l-1.081-1.298h15.245z" fill="#b4dce6"/><path d="m159.632 15.88h-12.92l1.514-1.297h10.271z" fill="#b4dce6"/><path d="m127.574 48.857h7.461l1.027 1.297h-10.055z" fill="#0078a0"/><path d="m139.846 38.64h12.596l1.027 1.297h-15.245z" fill="#0078a0"/><path d="m135.035 48.857 4-20.435 1.082 1.298-4.055 20.434z" fill="#008caa"/><path d="m141.846 28.422-2 10.218-1.622 1.297 2.001-10.217z" fill="#78c8dc"/><path d="m140.117 29.72-1.082-1.298h2.811l-1.621 1.298z" fill="#0078a0"/><path d="m136.116 5.663-8.542 43.194-1.567 1.297 9.028-45.789z" fill="#78c8dc"/><path d="m193.311 13.069h7.839l-1.676 1.298h-5.189z" fill="#0078a0"/><path d="m201.15 13.069-5.568 28.328-1.189-1.352 5.081-25.678z" fill="#78c8dc"/><path d="m195.582 41.397h-7.839l1.46-1.352h5.19z" fill="#b4dce6"/><path d="m194.285 14.367-5.082 25.678-1.46 1.352 5.568-28.328z" fill="#008caa"/><path d="m214.233 10.691h-5.19l1.46-1.244h5.189z" fill="#b4dce6"/><path d="m209.043 10.691 1.027-5.028 1.46-1.298-1.027 5.082z" fill="#008caa"/><path d="m215.692 9.447-7.027 35.571-.973-1.297 6.541-33.03z" fill="#008caa"/><path d="m208.665 45.018h-5.136l-.973-1.297h5.136z" fill="#0078a0"/><path d="m201.529 48.857 1.027-5.136.973 1.297-1.027 5.136z" fill="#008caa"/><path d="m210.07 5.663h-22.813l-1.189-1.298h25.462z" fill="#b4dce6"/><path d="m202.502 50.154h-25.463l1.676-1.297h22.814z" fill="#0078a0"/><path d="m186.068 4.365 1.189 1.298-1.027 5.028-1.135-1.244z" fill="#78c8dc"/><path d="m180.013 9.447h5.082l1.135 1.244h-5.082z" fill="#b4dce6"/><path d="m179.743 43.721-1.028 5.136-1.676 1.297 1.028-5.136z" fill="#78c8dc"/><path d="m174.661 43.721h5.082l-1.676 1.297-5.028-.053z" fill="#0078a0"/><path d="m181.148 10.691-6.487 33.03-1.622 1.244 6.974-35.518z" fill="#78c8dc"/><path d="m250.94 5.663h-7.407l-1.243-1.298h10.055z" fill="#b4dce6"/><path d="m252.345 4.365-9.028 45.789-.865-1.297 8.488-43.194z" fill="#008caa"/><path d="m243.533 5.663-4.054 20.434-1.244-1.297 4.055-20.435z" fill="#78c8dc"/><path d="m236.722 26.097 2-10.217 1.406-1.297-2 10.217z" fill="#008caa"/><path d="m239.479 26.097h-2.757l1.406-1.297h.107z" fill="#b4dce6"/><path d="m229.856 48.857h12.596l.865 1.297h-15.191z" fill="#0078a0"/><path d="m238.722 15.88h-5.081l1.459-1.297h5.028z" fill="#b4dce6"/><path d="m237.1 4.365-2 10.218-1.459 1.297 2.054-10.217z" fill="#008caa"/><path d="m235.695 5.663h-12.65l-1.19-1.298h15.245z" fill="#b4dce6"/><path d="m230.127 39.937 1.729-1.297-2 10.217-1.73 1.297z" fill="#78c8dc"/><path d="m226.775 38.64h5.081l-1.729 1.297h-5.082z" fill="#0078a0"/><path d="m226.018 28.422h2.757l-1.676 1.298h-.162z" fill="#0078a0"/><path d="m228.775 28.422-2 10.218-1.73 1.297 2.054-10.217z" fill="#78c8dc"/><path d="m226.937 29.72-4 20.434-.973-1.297 4.054-20.435z" fill="#008caa"/><path d="m214.557 48.857h7.407l.973 1.297h-10.11z" fill="#0078a0"/><path d="m223.045 5.663-8.488 43.194-1.73 1.297 9.028-45.789z" fill="#78c8dc"/><path d="m66.919 5.663h-12.596l-.973-1.298h15.245z" fill="#b4dce6"/><path d="m115.681 5.663-8.487 43.194-1.459 1.243 8.973-45.735z" fill="#78c8dc"/><path d="m129.953 4.365-9.028 45.735-1.135-1.243 8.487-43.194z" fill="#008caa"/><path d="m128.277 5.663h-12.596l-.973-1.298h15.245z" fill="#b4dce6"/><path d="m121.033 50.047h-15.191l1.514-1.244h12.596z" fill="#0078a0"/></g></g></g></svg>